<svg xmlns="http://www.w3.org/2000/svg" width="1173.249" height="172.095" viewBox="0 0 1173.249 172.095">
  <path id="Path_11512" data-name="Path 11512" d="M-578.077-49.665h2.541a92.884,92.884,0,0,0,6.583,21.021,60.76,60.76,0,0,0,8.893,14.091A39.516,39.516,0,0,0-549.9-6.006a43.872,43.872,0,0,0,10.741,4.389A51.79,51.79,0,0,0-528.759,0q4.966.231,9.356.231,12.243,0,20.1-3.7a34.991,34.991,0,0,0,12.474-9.356,33.606,33.606,0,0,0,6.468-12.243,45.131,45.131,0,0,0,1.848-12.127,29.7,29.7,0,0,0-3-13.86,33.3,33.3,0,0,0-7.623-9.818,42.68,42.68,0,0,0-10.049-6.583,69.341,69.341,0,0,0-10.279-3.927l-26.565-8.085q-18.711-5.775-28.3-15.246t-9.587-25.41a49.76,49.76,0,0,1,3.7-19.289,45.2,45.2,0,0,1,10.395-15.361,48.425,48.425,0,0,1,16.055-10.164,55.157,55.157,0,0,1,20.444-3.7,55.662,55.662,0,0,1,13.513,1.386,60.347,60.347,0,0,1,9.355,3.118q3.927,1.732,7.046,3.118a15.5,15.5,0,0,0,6.352,1.386q3,0,4.043-.809a15.526,15.526,0,0,0,2.888-4.042h3.234v41.811h-2.772a68.7,68.7,0,0,0-4.735-16.054,49.555,49.555,0,0,0-8.663-13.629,40.565,40.565,0,0,0-12.82-9.471,40.088,40.088,0,0,0-17.44-3.581,56.367,56.367,0,0,0-12.243,1.5,38.645,38.645,0,0,0-12.474,5.2,31.171,31.171,0,0,0-9.586,9.7q-3.811,6.006-3.811,15.246a24.773,24.773,0,0,0,3,12.589,29.2,29.2,0,0,0,7.738,8.778,47.514,47.514,0,0,0,10.626,6.006q5.89,2.426,11.9,4.274l27.951,8.778q4.389,1.386,11.088,3.7a49.81,49.81,0,0,1,13.051,6.93,40.052,40.052,0,0,1,10.857,12.243q4.5,7.623,4.5,19.4a53.77,53.77,0,0,1-4.043,20.674,51.732,51.732,0,0,1-11.665,17.325,57.25,57.25,0,0,1-18.48,12.012,63.37,63.37,0,0,1-24.486,4.5q-4.851,0-8.547-.115a63.008,63.008,0,0,1-6.93-.577q-3.234-.462-6.468-1.04A67.977,67.977,0,0,1-548.509,0q-4.62-1.386-9.933-3.234a28.779,28.779,0,0,0-9.24-1.848q-3.465,0-4.735,1.386A12.039,12.039,0,0,0-574.612,0h-3.465ZM-411.3-3.234h25.641v-158H-411.3v-3.234h132.132v39.963H-281.7a115.959,115.959,0,0,0-6.468-15.824,43.542,43.542,0,0,0-8.316-11.55,30.55,30.55,0,0,0-11.55-7.046,49.865,49.865,0,0,0-16.17-2.31h-38.346v71.379h15.015A51.956,51.956,0,0,0-334.6-91.245a19.7,19.7,0,0,0,9.124-5.2,30.8,30.8,0,0,0,6.468-10.4,127.4,127.4,0,0,0,5.2-16.979h2.541v71.841h-2.541q-1.617-6.7-3.349-12.936A40.316,40.316,0,0,0-322.014-76a22.964,22.964,0,0,0-8.316-7.739q-5.2-2.887-13.514-2.887h-18.711V-3.234H-318.9q12.705,0,21.136-5.429A49.217,49.217,0,0,0-284.014-21.6a56.033,56.033,0,0,0,7.854-15.592,81.963,81.963,0,0,0,3.234-13.4h2.541V0H-411.3Zm185.724,0h25.641v-158h-25.641v-3.234h74.382v3.234H-176.83v158h41.118q20.328,0,31.878-12.7t16.863-34.65h2.541V0H-225.571Zm181.335,0H-18.6v-158H-44.236v-3.234H30.146v3.234H4.5v158H45.623q20.328,0,31.878-12.7t16.863-34.65H96.9V0H-44.236Zm182.028,0h25.641v-158H137.792v-3.234h74.382v3.234H186.533v158h25.641V0H137.792Zm112.035,0h25.641v-158H249.827v-3.234H381.959v39.963h-2.541a115.959,115.959,0,0,0-6.468-15.824,43.542,43.542,0,0,0-8.316-11.55,30.55,30.55,0,0,0-11.55-7.046,49.865,49.865,0,0,0-16.17-2.31H298.568v71.379h15.015a51.956,51.956,0,0,0,12.936-1.386,19.7,19.7,0,0,0,9.124-5.2,30.8,30.8,0,0,0,6.468-10.4,127.4,127.4,0,0,0,5.2-16.979h2.541v71.841h-2.541q-1.617-6.7-3.349-12.936A40.316,40.316,0,0,0,339.108-76a22.964,22.964,0,0,0-8.316-7.739q-5.2-2.887-13.514-2.887H298.568V-3.234h43.659q12.705,0,21.136-5.429A49.217,49.217,0,0,0,377.108-21.6a56.033,56.033,0,0,0,7.854-15.592,81.963,81.963,0,0,0,3.234-13.4h2.541V0H249.827ZM484.291-89.859h21.252a40.354,40.354,0,0,0,11.781-1.617,20.564,20.564,0,0,0,9.125-5.66,27.048,27.048,0,0,0,5.891-10.972,62.258,62.258,0,0,0,2.079-17.556q0-12.012-3.118-19.288a26.062,26.062,0,0,0-8.085-10.973,26.59,26.59,0,0,0-11.088-4.851A65.294,65.294,0,0,0,500-161.931q-4.158,0-8.431.115a59.371,59.371,0,0,0-7.277.577ZM435.55-3.234h25.641v-158H435.55v-3.234h43.89q2.772,0,5.544-.115t5.544-.346q2.772,0,5.544-.116t5.544-.115a169.877,169.877,0,0,1,24.024,1.5,40.077,40.077,0,0,1,19.4,8.663,35.573,35.573,0,0,1,11.435,14.091,37.791,37.791,0,0,1,3.349,14.784,40.728,40.728,0,0,1-1.271,8.894,29.961,29.961,0,0,1-5.544,11.088,41.443,41.443,0,0,1-12.358,10.4q-8.085,4.735-21.483,6.353v.462q3.7.462,10.049,1.732a59.162,59.162,0,0,1,12.936,4.273,47.881,47.881,0,0,1,12.128,7.97,27.011,27.011,0,0,1,7.854,12.82A55.585,55.585,0,0,1,564.1-51.628q.577,5.89.924,12.127t.693,12.012a58.541,58.541,0,0,0,1.271,9.7A35.718,35.718,0,0,0,571.378-6.93q3,4.851,9.7,4.851a18.51,18.51,0,0,0,6.237-1.155,15.444,15.444,0,0,0,5.775-3.7l2.079,2.541q-1.155.924-2.656,1.964A19.38,19.38,0,0,1,588.7-.462a28.4,28.4,0,0,1-5.659,1.5,49.277,49.277,0,0,1-8.2.578,43.913,43.913,0,0,1-15.362-2.31,22.792,22.792,0,0,1-9.818-6.814A28.749,28.749,0,0,1,544.236-18.6a88.138,88.138,0,0,1-2.425-15.362l-1.617-21.021q-.924-11.55-4.62-18.018a25.446,25.446,0,0,0-8.662-9.471,24.928,24.928,0,0,0-10.28-3.581,87.022,87.022,0,0,0-9.24-.577h-23.1V-3.234h25.641V0H435.55Z" transform="translate(578.077 168.63)" fill="#0a0a0a"/>
</svg>
